<?xml version="1.0" encoding="UTF-8"?>
<svg version="1.1" xmlns="http://www.w3.org/2000/svg" width="227" height="63">
<path d="M0 0 C7.33179874 0.08514347 10.96098722 3.67160013 16.0625 8.5625 C17.52968639 9.96453337 18.99984297 11.3626445 20.48046875 12.75048828 C21.87629072 14.06725733 23.24739918 15.41007602 24.6171875 16.75390625 C26.82684207 18.75426167 26.82684207 18.75426167 29.0859375 18.59765625 C31.72381663 17.21615829 33.64182044 15.4768327 35.8125 13.4375 C36.68519531 12.63054688 37.55789062 11.82359375 38.45703125 10.9921875 C39.31683594 10.19039062 40.17664062 9.38859375 41.0625 8.5625 C42.53467947 7.22145585 44.01311931 5.88722549 45.5 4.5625 C46.42619141 3.7271875 46.42619141 3.7271875 47.37109375 2.875 C50.28321842 0.61524506 53.00455287 0.40464956 56.5625 0.375 C57.3359375 0.36082031 58.109375 0.34664063 58.90625 0.33203125 C61.0625 0.5625 61.0625 0.5625 64.0625 2.5625 C64.42326355 5.08084106 64.42326355 5.08084106 64.40307617 8.29736328 C64.40284958 9.49845734 64.40262299 10.69955139 64.40238953 11.93704224 C64.38690567 13.23914642 64.37142181 14.54125061 64.35546875 15.8828125 C64.34987416 17.22516405 64.34560341 18.56752173 64.34260559 19.90988159 C64.33114585 23.44460941 64.30166959 26.97896798 64.26849365 30.5135498 C64.23781671 34.11965947 64.22410538 37.72582874 64.20898438 41.33203125 C64.17680052 48.40900532 64.12559094 55.48572857 64.0625 62.5625 C61.56110398 63.81319801 59.78857309 63.69552467 57 63.6875 C55.65228516 63.69136719 55.65228516 63.69136719 54.27734375 63.6953125 C52.0625 63.5625 52.0625 63.5625 51.0625 62.5625 C50.9697167 61.18089885 50.94502957 59.79461962 50.94897461 58.40991211 C50.94905014 57.52907455 50.94912567 56.648237 50.94920349 55.7407074 C50.95694542 54.30477989 50.95694542 54.30477989 50.96484375 52.83984375 C50.9662587 51.86463272 50.96767365 50.88942169 50.96913147 49.88465881 C50.97474867 46.75640857 50.98730407 43.62822877 51 40.5 C51.00501278 38.38476666 51.00957607 36.26953219 51.01367188 34.15429688 C51.02472369 28.95700704 51.04147854 23.75975855 51.0625 18.5625 C49.32727359 19.96348275 47.59472866 21.36778704 45.86328125 22.7734375 C44.41562378 23.94592041 44.41562378 23.94592041 42.9387207 25.14208984 C39.52917863 28.01130299 36.36436805 31.0623547 33.23046875 34.2265625 C31.0625 35.5625 31.0625 35.5625 28.14453125 35.5703125 C24.350203 34.32958159 22.41857726 32.58650607 19.5625 29.8125 C18.61761719 28.91273437 17.67273438 28.01296875 16.69921875 27.0859375 C15.82910156 26.25320312 14.95898438 25.42046875 14.0625 24.5625 C12.09246965 22.85237805 10.08894764 21.20556565 8.0625 19.5625 C7.16035047 29.83211478 6.77015294 40.08012824 6.51025391 50.38378906 C6.45882689 52.3757604 6.40139694 54.36757396 6.34375 56.359375 C6.29831055 58.11266113 6.29831055 58.11266113 6.25195312 59.90136719 C6.0625 62.5625 6.0625 62.5625 5.0625 63.5625 C3.39820949 63.66073937 1.72968069 63.69223631 0.0625 63.6875 C-1.29875 63.69136719 -1.29875 63.69136719 -2.6875 63.6953125 C-4.9375 63.5625 -4.9375 63.5625 -5.9375 62.5625 C-6.09835383 59.93968368 -6.19734585 57.34056526 -6.25390625 54.71484375 C-6.27468735 53.91075577 -6.29546844 53.10666779 -6.31687927 52.2782135 C-6.36026681 50.56240368 -6.40129291 48.84653283 -6.44018555 47.13061523 C-6.49857136 44.56283104 -6.56400448 41.99531043 -6.63085938 39.42773438 C-6.82935023 31.53755534 -6.98344021 23.64657354 -7.02734375 15.75390625 C-7.03499756 14.53002197 -7.04265137 13.3061377 -7.05053711 12.04516602 C-6.67386531 0.43993222 -6.67386531 0.43993222 0 0 Z " fill="#FAE7C1" transform="translate(8.9375,-0.5625)"/>
<path d="M0 0 C1.29997925 0.00303635 1.29997925 0.00303635 2.6262207 0.00613403 C3.51027588 0.00517731 4.39433105 0.00422058 5.30517578 0.00323486 C7.178142 0.00255302 9.05111056 0.0044076 10.92407227 0.00857544 C13.80140458 0.01392364 16.67858078 0.0086306 19.5559082 0.00222778 C21.37101272 0.00288856 23.18611713 0.00416972 25.0012207 0.00613403 C25.86787354 0.0041098 26.73452637 0.00208557 27.62744141 0 C33.69877061 0.02399644 33.69877061 0.02399644 34.8137207 1.13894653 C34.91245886 3.13694225 34.94343869 5.13851812 34.9387207 7.13894653 C34.94258789 8.77863403 34.94258789 8.77863403 34.9465332 10.45144653 C34.8137207 13.13894653 34.8137207 13.13894653 33.8137207 14.13894653 C31.81589944 14.29719912 29.81283236 14.39013825 27.80981445 14.45535278 C25.98740234 14.51819458 25.98740234 14.51819458 24.12817383 14.58230591 C22.8487793 14.62162231 21.56938477 14.66093872 20.2512207 14.70144653 C18.96795898 14.74463013 17.68469727 14.78781372 16.36254883 14.83230591 C13.17972217 14.93879453 9.99681397 15.04080615 6.8137207 15.13894653 C6.8137207 18.76894653 6.8137207 22.39894653 6.8137207 26.13894653 C8.46243164 26.12734497 10.11114258 26.11574341 11.80981445 26.10379028 C13.95694874 26.09441415 16.10408425 26.08531376 18.2512207 26.07644653 C19.33983398 26.06806763 20.42844727 26.05968872 21.55004883 26.05105591 C22.58452148 26.04783325 23.61899414 26.0446106 24.68481445 26.04129028 C25.64315186 26.03605347 26.60148926 26.03081665 27.58886719 26.02542114 C29.8137207 26.13894653 29.8137207 26.13894653 30.8137207 27.13894653 C30.91223241 28.97010536 30.94344699 30.80514587 30.9387207 32.63894653 C30.94258789 34.13941528 30.94258789 34.13941528 30.9465332 35.67019653 C30.8137207 38.13894653 30.8137207 38.13894653 29.8137207 39.13894653 C28.10599713 39.22608485 26.39473421 39.24594661 24.68481445 39.23660278 C23.13310547 39.2317688 23.13310547 39.2317688 21.55004883 39.22683716 C20.46143555 39.21845825 19.37282227 39.21007935 18.2512207 39.20144653 C16.6125 39.19467896 16.6125 39.19467896 14.94067383 39.18777466 C12.23166639 39.17594493 9.5226869 39.15800884 6.8137207 39.13894653 C6.8137207 42.76894653 6.8137207 46.39894653 6.8137207 50.13894653 C16.0537207 50.13894653 25.2937207 50.13894653 34.8137207 50.13894653 C34.8137207 54.09894653 34.8137207 58.05894653 34.8137207 62.13894653 C31.4911652 63.80022429 27.77437641 63.28056377 24.12231445 63.27175903 C23.26187027 63.27271576 22.40142609 63.27367249 21.51490784 63.2746582 C19.69499641 63.27533918 17.87508255 63.27349062 16.05517578 63.26931763 C13.25914091 63.2639617 10.46326622 63.26926873 7.66723633 63.27566528 C5.90226201 63.27500462 4.1372878 63.27372369 2.37231445 63.27175903 C1.53067245 63.27378326 0.68903046 63.2758075 -0.17811584 63.27789307 C-6.07132457 63.25390126 -6.07132457 63.25390126 -7.1862793 62.13894653 C-7.28543724 60.24195805 -7.31427244 58.34125866 -7.31567383 56.44168091 C-7.31882599 55.22371826 -7.32197815 54.00575562 -7.32522583 52.75088501 C-7.32343605 51.41148849 -7.32138509 50.07209229 -7.3190918 48.73269653 C-7.31976489 47.36888614 -7.32073497 46.00507585 -7.32199097 44.64126587 C-7.32346767 41.77964132 -7.32131426 38.91804794 -7.31665039 36.056427 C-7.3109531 32.38076039 -7.31423225 28.7051668 -7.32022285 25.02950287 C-7.32382921 22.2123255 -7.32268954 19.39516555 -7.32009506 16.57798767 C-7.319426 15.2223459 -7.32025351 13.86670257 -7.32257462 12.51106262 C-7.32510231 10.61944609 -7.32056943 8.72782404 -7.31567383 6.83621216 C-7.31487823 5.75779053 -7.31408264 4.6793689 -7.31326294 3.56826782 C-7.06235487 -1.23184901 -4.12147285 0.01628979 0 0 Z " fill="#F5E2BE" transform="translate(88.186279296875,-0.138946533203125)"/>
<path d="M0 0 C3.2508639 2.66660726 4.81555629 5.2338492 5.8125 9.375 C5.874375 10.24125 5.93625 11.1075 6 12 C2.12710629 14.58192914 -1.34188181 15.38263114 -6 15 C-6.78375 14.195625 -7.5675 13.39125 -8.375 12.5625 C-12.00329423 9.02059372 -14.68145508 9.47828368 -19.57421875 9.53125 C-20.77498047 9.76328125 -20.77498047 9.76328125 -22 10 C-24.20376008 12.67685348 -24.20376008 12.67685348 -23.9375 15 C-22.5767669 17.90289728 -20.83679079 18.52305566 -18 20 C-14.70253373 21.09800808 -11.40288603 22.07877396 -8.05859375 23.01757812 C-2.03212235 24.79108256 3.58982238 26.63454077 6.9375 32.25 C9.12197816 39.9599229 8.17883451 44.50451888 4.875 51.60546875 C1.62730743 55.7530428 -2.24563085 58.49274422 -7.48828125 59.45825195 C-10.17703733 59.63436145 -12.80681314 59.63398344 -15.5 59.5625 C-16.39847656 59.57345703 -17.29695313 59.58441406 -18.22265625 59.59570312 C-24.25953118 59.52979838 -28.98328511 58.46350788 -34 55 C-38.19220068 50.37783002 -38.73320527 46.00288137 -39 40 C-36.91846065 39.86463978 -34.83438794 39.76784535 -32.75 39.6875 C-31.58984375 39.62949219 -30.4296875 39.57148437 -29.234375 39.51171875 C-26 40 -26 40 -23.703125 42.45703125 C-23.14109375 43.29621094 -22.5790625 44.13539062 -22 45 C-19.54617866 46.22691067 -17.80015897 46.20175931 -15.0625 46.25 C-13.74958984 46.28867188 -13.74958984 46.28867188 -12.41015625 46.328125 C-9.95286397 46.19192384 -9.95286397 46.19192384 -8.1953125 44.65234375 C-6.56006901 42.39186011 -6.77944129 40.72022409 -7 38 C-11.91562963 35.91661791 -17.00090903 34.43954044 -22.1171875 32.94335938 C-28.11230825 31.12785583 -32.79911257 28.8010142 -37 24 C-39.08582943 17.74251171 -39.1346802 10.39543597 -36.3125 4.4375 C-26.62717986 -5.77135096 -12.23824683 -7.26225636 0 0 Z " fill="#F9E7BE" transform="translate(168,4)"/>
<path d="M0 0 C3.75945005 3.75945005 5.1875 6.87974653 5.1875 12.1875 C-2.91358303 14.72901625 -2.91358303 14.72901625 -6.8125 14.1875 C-8.625 12.8125 -8.625 12.8125 -9.8125 11.1875 C-9.8125 10.5275 -9.8125 9.8675 -9.8125 9.1875 C-11.74931161 9.10642417 -13.6870934 9.04827525 -15.625 9 C-16.70394531 8.96519531 -17.78289062 8.93039062 -18.89453125 8.89453125 C-21.80719932 8.93746041 -21.80719932 8.93746041 -23.703125 10.57421875 C-25.01165581 12.13613715 -25.01165581 12.13613715 -24.75 14.1875 C-23.49565213 16.86344211 -22.3455056 17.61791967 -19.8125 19.1875 C-16.33540511 20.41558627 -12.75589 21.28510258 -9.1875 22.20507812 C-3.54362368 23.74567687 0.80055489 25.82078324 5.03125 30.015625 C7.62932181 34.89578691 6.81376211 40.85532546 6.1875 46.1875 C4.32884147 51.59000079 1.33667281 54.63313124 -3.70532227 57.37597656 C-7.789094 58.94873259 -11.92627317 58.80224119 -16.25 58.75 C-17.60448242 58.78577148 -17.60448242 58.78577148 -18.98632812 58.82226562 C-25.4641504 58.8081936 -29.82101063 57.3701902 -34.8125 53.1875 C-38.34976923 49.01533629 -39.49180792 45.63926541 -39.8125 40.1875 C-38.10864834 38.48364834 -36.01915078 38.85482899 -33.6875 38.75 C-28.43412027 38.75676111 -28.43412027 38.75676111 -25.87890625 40.52734375 C-24.79682447 41.63018489 -23.71608399 42.73434376 -22.63671875 43.83984375 C-19.62633397 46.06378968 -16.67258527 45.77585602 -13.046875 45.69140625 C-10.39317826 45.09293268 -9.42500079 44.35478402 -7.8125 42.1875 C-7.56180087 39.56179296 -7.56180087 39.56179296 -7.8125 37.1875 C-12.70370378 35.11851127 -17.75719259 33.63582628 -22.84179688 32.13085938 C-28.27831429 30.47671521 -33.27363225 28.93432285 -37.125 24.5625 C-40.01011786 18.79226428 -40.49199442 13.66927765 -38.75 7.4375 C-36.55696951 1.76723197 -32.62818399 -1.17047105 -27.1875 -3.625 C-17.73821429 -6.79286398 -8.25521722 -5.32002887 0 0 Z " fill="#F9E8C0" transform="translate(220.8125,4.8125)"/>
<path d="M0 0 C4.32046898 1.41680244 7.00461199 3.53763785 10.3125 6.625 C11.19550781 7.44226562 12.07851563 8.25953125 12.98828125 9.1015625 C13.65214844 9.72804688 14.31601562 10.35453125 15 11 C20.09275222 9.293434 23.02894551 6.36868739 26.81640625 2.6796875 C29 1 29 1 33 1 C33.72829988 4.86955292 33.88824932 8.14606579 33 12 C29.7975952 15.95559307 26.06181151 18.95931429 22 22 C21.30390625 22.6084375 20.6078125 23.216875 19.890625 23.84375 C18 25 18 25 16.07958984 24.70898438 C9.97906362 22.62916186 2.62107305 16.16109245 -0.328125 10.41015625 C-1.21877308 6.58673127 -1.09566529 3.76740295 0 0 Z " fill="#F5E5C1" transform="translate(21,32)"/>
<path d="M0 0 C4.28607465 0.01103237 6.39275838 0.32295685 9.4375 3.375 C9.96601563 3.92285156 10.49453125 4.47070312 11.0390625 5.03515625 C14.47023402 7.65598726 18.69403654 7.4206752 22.875 7.4375 C22.875 7.7675 22.875 8.0975 22.875 8.4375 C20.235 8.7675 17.595 9.0975 14.875 9.4375 C14.875 9.7675 14.875 10.0975 14.875 10.4375 C12.235 11.0975 9.595 11.7575 6.875 12.4375 C7.205 13.0975 7.535 13.7575 7.875 14.4375 C9.73992402 14.82745102 9.73992402 14.82745102 11.875 14.9375 C14.0625 15.09375 14.0625 15.09375 15.875 15.4375 C16.205 16.0975 16.535 16.7575 16.875 17.4375 C23.07387485 17.81702295 27.3227112 17.2727113 32.875 14.4375 C31.875 17.4375 31.875 17.4375 30.10644531 18.60180664 C26.0555099 20.11891298 21.90563934 19.84835702 17.625 19.875 C16.70847656 19.90787109 15.79195312 19.94074219 14.84765625 19.97460938 C8.28068576 20.02613339 3.9291901 18.70386486 -1.125 14.4375 C-4.66226923 10.26533629 -5.80430792 6.88926541 -6.125 1.4375 C-4.42114834 -0.26635166 -2.33165078 0.10482899 0 0 Z " fill="#F7E2BB" transform="translate(187.125,43.5625)"/>
<path d="M0 0 C9.04529635 -0.58651057 16.51923575 -0.60691332 24 5 C26.6489079 8.16576798 28.36855759 10.89562437 29 15 C20.89891697 17.54151625 20.89891697 17.54151625 17 17 C15.1875 15.625 15.1875 15.625 14 14 C14 13.34 14 12.68 14 12 C13.30132812 11.95101563 12.60265625 11.90203125 11.8828125 11.8515625 C10.97273437 11.77679688 10.06265625 11.70203125 9.125 11.625 C8.22007812 11.55539062 7.31515625 11.48578125 6.3828125 11.4140625 C4 11 4 11 2 9 C3.65 8.34 5.3 7.68 7 7 C7 5.35 7 3.7 7 2 C4.69 1.67 2.38 1.34 0 1 C0 0.67 0 0.34 0 0 Z " fill="#FDEEC0" transform="translate(197,2)"/>
<path d="M0 0 C7.24656969 0.05646678 11.11981785 3.60256591 16.0625 8.5625 C18.18784884 10.83208409 20.12986596 13.12127806 22.0625 15.5625 C17.6732 13.65280455 14.64773236 10.57031365 11.18359375 7.33984375 C6.54451163 3.45258341 3.69432896 4.5625 -2.9375 4.5625 C-2.9375 21.0625 -2.9375 37.5625 -2.9375 54.5625 C-3.5975 54.5625 -4.2575 54.5625 -4.9375 54.5625 C-4.9375 56.8725 -4.9375 59.1825 -4.9375 61.5625 C-1.3075 61.5625 2.3225 61.5625 6.0625 61.5625 C5.7325 62.2225 5.4025 62.8825 5.0625 63.5625 C3.41675434 63.58938151 1.77088587 63.60884123 0.125 63.625 C-0.79152344 63.63660156 -1.70804687 63.64820313 -2.65234375 63.66015625 C-4.9375 63.5625 -4.9375 63.5625 -5.9375 62.5625 C-6.09835383 59.93968368 -6.19734585 57.34056526 -6.25390625 54.71484375 C-6.27468735 53.91075577 -6.29546844 53.10666779 -6.31687927 52.2782135 C-6.36026681 50.56240368 -6.40129291 48.84653283 -6.44018555 47.13061523 C-6.49857136 44.56283104 -6.56400448 41.99531043 -6.63085938 39.42773438 C-6.82935023 31.53755534 -6.98344021 23.64657354 -7.02734375 15.75390625 C-7.03499756 14.53002197 -7.04265137 13.3061377 -7.05053711 12.04516602 C-6.67386531 0.43993222 -6.67386531 0.43993222 0 0 Z " fill="#E3DDCB" transform="translate(8.9375,-0.5625)"/>
<path d="M0 0 C0.7734375 -0.01417969 1.546875 -0.02835937 2.34375 -0.04296875 C4.5 0.1875 4.5 0.1875 7.5 2.1875 C7.17 3.5075 6.84 4.8275 6.5 6.1875 C6.005 5.1975 6.005 5.1975 5.5 4.1875 C2.91394668 3.7191735 2.91394668 3.7191735 -0.0625 3.5625 C-1.07441406 3.48773438 -2.08632813 3.41296875 -3.12890625 3.3359375 C-4.30259766 3.26246094 -4.30259766 3.26246094 -5.5 3.1875 C-5.63277344 3.80496094 -5.76554687 4.42242188 -5.90234375 5.05859375 C-6.75795906 8.10637378 -8.02056905 9.21667027 -10.5 11.1875 C-11.76059414 11.63418879 -13.03301801 12.04820025 -14.3125 12.4375 C-19.50950393 14.16333432 -22.27183425 17.94044443 -25.5 22.1875 C-29.18297866 21.5666378 -31.07688029 21.12075018 -33.5 18.1875 C-35.48 18.8475 -37.46 19.5075 -39.5 20.1875 C-39.17 18.8675 -38.84 17.5475 -38.5 16.1875 C-39.49 15.8575 -40.48 15.5275 -41.5 15.1875 C-41.83 13.2075 -42.16 11.2275 -42.5 9.1875 C-41.613125 9.97125 -40.72625 10.755 -39.8125 11.5625 C-37.17661753 13.77464723 -34.7510934 15.01349405 -31.5 16.1875 C-30.84 16.8475 -30.18 17.5075 -29.5 18.1875 C-25.59485566 17.93717023 -23.50439989 15.65023238 -20.75 13.0625 C-19.87730469 12.25554688 -19.00460938 11.44859375 -18.10546875 10.6171875 C-17.24566406 9.81539062 -16.38585937 9.01359375 -15.5 8.1875 C-14.02782053 6.84645585 -12.54938069 5.51222549 -11.0625 4.1875 C-10.13630859 3.3521875 -10.13630859 3.3521875 -9.19140625 2.5 C-6.27928158 0.24024506 -3.55794713 0.02964956 0 0 Z " fill="#FAF5D9" transform="translate(65.5,-0.1875)"/>
<path d="M0 0 C13.2 0 26.4 0 40 0 C40 0.33 40 0.66 40 1 C27.13 1 14.26 1 1 1 C1 19.48 1 37.96 1 57 C12.88 57 24.76 57 37 57 C37.66 55.02 38.32 53.04 39 51 C39.33 51 39.66 51 40 51 C40 53.64 40 56.28 40 59 C26.8 59 13.6 59 0 59 C0 39.53 0 20.06 0 0 Z " fill="#FEF2D2" transform="translate(82,2)"/>
<path d="M0 0 C2.09763948 3.40486409 2.09763948 3.40486409 1.671875 6 C-0.21459427 10.09267909 -2.07319006 12.53075763 -6.1875 14.5 C-14.37996892 17.26342981 -26.16857335 17.84647674 -34 14 C-31 13 -31 13 -28.6875 13.5625 C-25.24924151 14.1222165 -23.2455438 13.19224058 -20 12 C-18.00630969 11.63079809 -16.00720923 11.28674418 -14 11 C-14 11.99 -14 12.98 -14 14 C-13.236875 13.690625 -12.47375 13.38125 -11.6875 13.0625 C-9.81210323 12.32106407 -7.91315348 11.63771783 -6 11 C-6 10.34 -6 9.68 -6 9 C-5.38125 8.5875 -4.7625 8.175 -4.125 7.75 C-1.37883708 5.48845406 -0.90113361 3.37925104 0 0 Z " fill="#FDF3CB" transform="translate(173,46)"/>
<path d="M0 0 C3.84478875 1.45836815 5.1822915 3.36458299 7 7 C7.6875 9.3125 7.6875 9.3125 8 11 C-0.10108303 13.54151625 -0.10108303 13.54151625 -4 13 C-5.8125 11.625 -5.8125 11.625 -7 10 C-7 9.34 -7 8.68 -7 8 C-3.25 6.875 -3.25 6.875 -1 8 C-0.17361624 5.10765685 0 3.11257569 0 0 Z " fill="#FAF2CA" transform="translate(218,6)"/>
<path d="M0 0 C0.99 0 1.98 0 3 0 C3.33 0.99 3.66 1.98 4 3 C5.299375 3.12375 6.59875 3.2475 7.9375 3.375 C10.15234375 3.5859375 10.15234375 3.5859375 12 4 C12.33 4.66 12.66 5.32 13 6 C19.19887485 6.37952295 23.4477112 5.8352113 29 3 C28 6 28 6 26.23144531 7.16430664 C22.1805099 8.68141298 18.03063934 8.41085702 13.75 8.4375 C12.83347656 8.47037109 11.91695312 8.50324219 10.97265625 8.53710938 C4.31573203 8.58933917 0.23284852 7.11272098 -5 3 C-2 3 -2 3 0 4 C0 2.68 0 1.36 0 0 Z " fill="#E9DFBE" transform="translate(191,55)"/>
<path d="M0 0 C3.63 0 7.26 0 11 0 C11 0.66 11 1.32 11 2 C8.36 2.33 5.72 2.66 3 3 C3.33 4.65 3.66 6.3 4 8 C4.99 7.67 5.98 7.34 7 7 C7.66 7.66 8.32 8.32 9 9 C8.34 9.66 7.68 10.32 7 11 C7.66 11.33 8.32 11.66 9 12 C9 12.99 9 13.98 9 15 C5.85273628 14.42777023 3.66485767 13.87274827 1.67578125 11.26171875 C-0.7835285 6.67963638 -1.09167665 5.45838323 0 0 Z " fill="#F8EBCB" transform="translate(182,44)"/>
<path d="M0 0 C0.886875 0.78375 1.77375 1.5675 2.6875 2.375 C5.32338247 4.58714723 7.7489066 5.82599405 11 7 C11.66 7.66 12.32 8.32 13 9 C16.64291257 8.70277492 18.53479686 6.87504858 21.125 4.4375 C24.79074447 1 24.79074447 1 27 1 C27 1.66 27 2.32 27 3 C25.3203125 4.62109375 25.3203125 4.62109375 23.125 6.4375 C20.53806278 8.58400884 18.88815626 10.16776562 17 13 C13.31245243 12.50168276 11.39509338 11.89932357 9 9 C7.02 9.66 5.04 10.32 3 11 C3.33 9.68 3.66 8.36 4 7 C3.01 6.67 2.02 6.34 1 6 C0.67 4.02 0.34 2.04 0 0 Z " fill="#F8E9CC" transform="translate(23,9)"/>
<path d="M0 0 C0.66 0.33 1.32 0.66 2 1 C1.34 1.66 0.68 2.32 0 3 C2.31 3.33 4.62 3.66 7 4 C6.01 4.495 6.01 4.495 5 5 C5 6.32 5 7.64 5 9 C3.5 11.25 3.5 11.25 2 13 C1.34 12.67 0.68 12.34 0 12 C0 11.34 0 10.68 0 10 C-1.32 10.33 -2.64 10.66 -4 11 C-4.33 10.01 -4.66 9.02 -5 8 C-5.66 7.67 -6.32 7.34 -7 7 C-7 6.34 -7 5.68 -7 5 C-5.03277992 3.61876037 -3.03131672 2.28511874 -1 1 C-0.67 0.67 -0.34 0.34 0 0 Z " fill="#F7E3BA" transform="translate(43,39)"/>
<path d="M0 0 C0.95310059 0.05236816 1.90620117 0.10473633 2.88818359 0.15869141 C3.91943359 0.21025391 4.95068359 0.26181641 6.01318359 0.31494141 C7.63353516 0.41162109 7.63353516 0.41162109 9.28662109 0.51025391 C10.37458984 0.56697266 11.46255859 0.62369141 12.58349609 0.68212891 C15.27684496 0.82388411 17.96930039 0.97532032 20.66162109 1.13525391 C20.66162109 1.46525391 20.66162109 1.79525391 20.66162109 2.13525391 C13.40162109 2.13525391 6.14162109 2.13525391 -1.33837891 2.13525391 C-1.33837891 5.76525391 -1.33837891 9.39525391 -1.33837891 13.13525391 C7.57162109 13.13525391 16.48162109 13.13525391 25.66162109 13.13525391 C25.66162109 13.46525391 25.66162109 13.79525391 25.66162109 14.13525391 C16.09162109 14.13525391 6.52162109 14.13525391 -3.33837891 14.13525391 C-3.66837891 10.17525391 -3.99837891 6.21525391 -4.33837891 2.13525391 C-2.33837891 0.13525391 -2.33837891 0.13525391 0 0 Z " fill="#E5D4B8" transform="translate(96.33837890625,36.86474609375)"/>
<path d="M0 0 C-0.33 0.66 -0.66 1.32 -1 2 C-1.66386719 1.67773438 -2.32773438 1.35546875 -3.01171875 1.0234375 C-9.87218116 -1.32615878 -20.10681616 -1.38892084 -26.75 1.625 C-30.24150918 3.77243264 -32.05640986 6.43675141 -34 10 C-34.33 9.01 -34.66 8.02 -35 7 C-32.77092525 2.73568308 -29.34041758 -0.23444841 -24.875 -1.9375 C-16.22760425 -4.28527524 -8.08786903 -3.73286263 0 0 Z " fill="#DFDAC2" transform="translate(166,3)"/>
<path d="M0 0 C0.33 0 0.66 0 1 0 C1.33 7.26 1.66 14.52 2 22 C-1.63 22 -5.26 22 -9 22 C-9 19.69 -9 17.38 -9 15 C-8.690625 15.928125 -8.690625 15.928125 -8.375 16.875 C-6.82755814 19.75158623 -6.82755814 19.75158623 -1 21 C-0.67 14.07 -0.34 7.14 0 0 Z " fill="#FDF6D2" transform="translate(13,39)"/>
<path d="M0 0 C0.33 0 0.66 0 1 0 C1.33 2.31 1.66 4.62 2 7 C-7.57 7 -17.14 7 -27 7 C-27 6.67 -27 6.34 -27 6 C-14.625 5.505 -14.625 5.505 -2 5 C-1.67 3.68 -1.34 2.36 -1 1 C-0.67 0.67 -0.34 0.34 0 0 Z " fill="#FEF9D4" transform="translate(121,6)"/>
<path d="M0 0 C3.13190982 1.0799689 4.00599212 2.00950474 5.8125 4.875 C7 8 7 8 6.875 10.3125 C6 12 6 12 3 13 C2.01 12.34 1.02 11.68 0 11 C0.33 9.35 0.66 7.7 1 6 C1.66 6 2.32 6 3 6 C2.01 4.02 1.02 2.04 0 0 Z " fill="#EFE6C4" transform="translate(167,5)"/>
<path d="M0 0 C3.63 0 7.26 0 11 0 C11 0.33 11 0.66 11 1 C8.36 1.33 5.72 1.66 3 2 C3.66 4.97 4.32 7.94 5 11 C3.68 10.67 2.36 10.34 1 10 C-0.88594563 5.95868794 -1.10292424 4.41169694 0 0 Z " fill="#F5EDCE" transform="translate(130,45)"/>
<path d="M0 0 C2.13549921 3.40154517 2.13549921 3.40154517 1.53125 6.0703125 C-1.27750285 11.66653978 -1.27750285 11.66653978 -5.25 13.5 C-6.1575 13.665 -7.065 13.83 -8 14 C-8 13.01 -8 12.02 -8 11 C-7.34 11 -6.68 11 -6 11 C-6 10.34 -6 9.68 -6 9 C-5.071875 8.38125 -5.071875 8.38125 -4.125 7.75 C-1.37883708 5.48845406 -0.90113361 3.37925104 0 0 Z " fill="#F4EACF" transform="translate(173,46)"/>
<path d="M0 0 C0.33 0.99 0.66 1.98 1 3 C-0.23874421 4.178611 -1.4914801 5.34252915 -2.75 6.5 C-3.44609375 7.1496875 -4.1421875 7.799375 -4.859375 8.46875 C-7 10 -7 10 -11 10 C-11.33 9.01 -11.66 8.02 -12 7 C-11.01 7 -10.02 7 -9 7 C-8.67 6.34 -8.34 5.68 -8 5 C-6.824375 4.5359375 -6.824375 4.5359375 -5.625 4.0625 C-3.04017895 3.01626291 -1.7953831 2.07886465 0 0 Z " fill="#F7F0D0" transform="translate(47,25)"/>
<path d="M0 0 C1.17755859 -0.02126953 1.17755859 -0.02126953 2.37890625 -0.04296875 C4.4375 0.1875 4.4375 0.1875 6.4375 2.1875 C2.1475 2.1875 -2.1425 2.1875 -6.5625 2.1875 C-6.8925 3.1775 -7.2225 4.1675 -7.5625 5.1875 C-9.51847184 6.58462274 -11.51686401 7.92529907 -13.5625 9.1875 C-12.11786047 5.81667442 -10.31586875 3.60712708 -7.5625 1.1875 C-4.76092552 0.25364184 -2.90802197 0.02395405 0 0 Z " fill="#D9D7CD" transform="translate(65.5625,-0.1875)"/>
<path d="M0 0 C0 0.66 0 1.32 0 2 C-1.6796875 3.62109375 -1.6796875 3.62109375 -3.875 5.4375 C-6.46193722 7.58400884 -8.11184374 9.16776562 -10 12 C-11.32 12 -12.64 12 -14 12 C-14 11.34 -14 10.68 -14 10 C-13.01 10 -12.02 10 -11 10 C-10.7421875 9.40703125 -10.484375 8.8140625 -10.21875 8.203125 C-8.90230105 5.82339035 -7.57419218 4.49021208 -5.5 2.75 C-4.8915625 2.22921875 -4.283125 1.7084375 -3.65625 1.171875 C-2 0 -2 0 0 0 Z " fill="#DFD9C6" transform="translate(50,10)"/>
<path d="M0 0 C-0.33 0.66 -0.66 1.32 -1 2 C-1.66 1.67 -2.32 1.34 -3 1 C-3.226875 1.7425 -3.45375 2.485 -3.6875 3.25 C-5.24407532 6.51139591 -7.08518854 7.92894975 -10 10 C-10.66 9.67 -11.32 9.34 -12 9 C-9.12236832 3.54764525 -6.42887518 0 0 0 Z " fill="#EDE5CA" transform="translate(54,33)"/>
<path d="M0 0 C6.75 -0.125 6.75 -0.125 9 1 C8.67 2.32 8.34 3.64 8 5 C3.48279689 5.36625971 3.48279689 5.36625971 1.1875 3.625 C0 2 0 2 0 0 Z " fill="#F9E1B8" transform="translate(18,15)"/>
<path d="M0 0 C0.33 0 0.66 0 1 0 C2.87443946 10.68430493 2.87443946 10.68430493 0.73046875 13.91015625 C-0.9375 15.25 -0.9375 15.25 -4 17 C-3.05066101 13.64566891 -2.10251165 10.30753495 -1 7 C-0.64456573 4.66993089 -0.3086247 2.33672984 0 0 Z " fill="#FDF9D8" transform="translate(225,39)"/>
<path d="M0 0 C0.66 0.33 1.32 0.66 2 1 C1.67 1.99 1.34 2.98 1 4 C2.32 4.33 3.64 4.66 5 5 C4.01 5.33 3.02 5.66 2 6 C2.26656572 8.93443402 2.26656572 8.93443402 3 12 C3.99 12.66 4.98 13.32 6 14 C6 14.66 6 15.32 6 16 C2.83884224 14.63016497 2.0072908 14.0109362 0 11 C-0.78648334 7.0675833 -1.37913361 3.83092668 0 0 Z " fill="#E2DBCA" transform="translate(21,32)"/>
<path d="M0 0 C2.1385485 2.1385485 2.42655063 3.13275314 3 6 C0.69 6.33 -1.62 6.66 -4 7 C-2.92598892 4.08482708 -2.22189824 2.22189824 0 0 Z " fill="#FEF9D2" transform="translate(222,10)"/>
<path d="M0 0 C0.66 0.33 1.32 0.66 2 1 C1.34 1.66 0.68 2.32 0 3 C0.66 3.66 1.32 4.32 2 5 C-1.13498292 6.85776765 -3.37471432 7.20140476 -7 7 C-7 6.34 -7 5.68 -7 5 C-5.03277992 3.61876037 -3.03131672 2.28511874 -1 1 C-0.67 0.67 -0.34 0.34 0 0 Z " fill="#EADDBC" transform="translate(43,39)"/>
<path d="M0 0 C1.32 0 2.64 0 4 0 C4 1.98 4 3.96 4 6 C3.01 6.33 2.02 6.66 1 7 C0.67 4.69 0.34 2.38 0 0 Z " fill="#FBE6B6" transform="translate(30,43)"/>
<path d="M0 0 C4.37859255 0.50522222 6.81651224 3.17827222 10 6 C9.34 6.66 8.68 7.32 8 8 C7.34 7.67 6.68 7.34 6 7 C6 6.34 6 5.68 6 5 C5.34 5 4.68 5 4 5 C4 4.34 4 3.68 4 3 C2.68 3 1.36 3 0 3 C0 2.01 0 1.02 0 0 Z " fill="#F1EBD5" transform="translate(22,33)"/>
<path d="M0 0 C1 2 1 2 1.3125 3.9375 C2.23023022 6.69069065 3.59770823 7.44557591 6 9 C6.99 9.66 7.98 10.32 9 11 C5.28111761 10.49287967 2.26545761 9.88391785 -1 8 C-1.04241723 5.66705225 -1.04092937 3.33297433 -1 1 C-0.67 0.67 -0.34 0.34 0 0 Z " fill="#DDD2BC" transform="translate(195,15)"/>
<path d="M0 0 C-1.65 1.65 -3.3 3.3 -5 5 C-5.99 4.67 -6.98 4.34 -8 4 C-7.1875 2.0625 -7.1875 2.0625 -6 0 C-3 -1 -3 -1 0 0 Z " fill="#F5F1D8" transform="translate(44,52)"/>
<path d="M0 0 C1.485 0.99 1.485 0.99 3 2 C3.99 2 4.98 2 6 2 C7.0625 3.875 7.0625 3.875 8 6 C7.67 6.66 7.34 7.32 7 8 C6.01 7.67 5.02 7.34 4 7 C4 6.01 4 5.02 4 4 C2.68 3.34 1.36 2.68 0 2 C0 1.34 0 0.68 0 0 Z " fill="#FBEBCA" transform="translate(23,42)"/>
<path d="M0 0 C0.33 0 0.66 0 1 0 C1 4.29 1 8.58 1 13 C0.67 12.34 0.34 11.68 0 11 C-0.66 11 -1.32 11 -2 11 C-2 9.35 -2 7.7 -2 6 C-1.34 6 -0.68 6 0 6 C0 4.02 0 2.04 0 0 Z " fill="#FEF7E8" transform="translate(15,19)"/>
<path d="M0 0 C0.66 1.32 1.32 2.64 2 4 C1.01 4.495 1.01 4.495 0 5 C0 6.98 0 8.96 0 11 C-0.66 10.67 -1.32 10.34 -2 10 C-2.25 3.375 -2.25 3.375 0 0 Z " fill="#EDE2C4" transform="translate(184,9)"/>
<path d="M0 0 C0.99 0.33 1.98 0.66 3 1 C2.4140625 7.15234375 2.4140625 7.15234375 2 9 C1.01 9.495 1.01 9.495 0 10 C0.020625 9.05125 0.04125 8.1025 0.0625 7.125 C0.22551826 4.09333717 0.22551826 4.09333717 -1 2 C-0.67 1.34 -0.34 0.68 0 0 Z " fill="#FDF4D4" transform="translate(51,34)"/>
<path d="M0 0 C0.66 0 1.32 0 2 0 C2 0.66 2 1.32 2 2 C3.65 1.67 5.3 1.34 7 1 C7 2.65 7 4.3 7 6 C4.0625 4.6875 4.0625 4.6875 1 3 C0.67 2.01 0.34 1.02 0 0 Z " fill="#E8DFC5" transform="translate(133,56)"/>
<path d="M0 0 C3.63 0 7.26 0 11 0 C11 0.33 11 0.66 11 1 C8.02148438 1.29296875 8.02148438 1.29296875 5.04296875 1.5859375 C2.70011858 1.92665391 2.70011858 1.92665391 0 4 C0 2.68 0 1.36 0 0 Z " fill="#FEF6DA" transform="translate(130,45)"/>
<path d="M0 0 C0.99 0.33 1.98 0.66 3 1 C1.68 2.65 0.36 4.3 -1 6 C-1.99 5.67 -2.98 5.34 -4 5 C-2.68 3.35 -1.36 1.7 0 0 Z " fill="#FBEFCB" transform="translate(56,16)"/>
<path d="M0 0 C0.33 0 0.66 0 1 0 C1 1.65 1 3.3 1 5 C-1.31 5.33 -3.62 5.66 -6 6 C-4.68 5.67 -3.36 5.34 -2 5 C-1.855625 4.360625 -1.71125 3.72125 -1.5625 3.0625 C-1 1 -1 1 0 0 Z " fill="#FCF7C6" transform="translate(121,6)"/>
</svg>
